# xmcd CD database file
#
# Track frame offsets:
#	150
#	18753
#	32842
#	46548
#	58321
#	72784
#	87803
#	104599
#	120941
#	137125
#	156947
#	171474
#	184289
#	196891
#
# Disc length: 2904 seconds
#
# Revision: 0
# Processed by: cddbd v1.5.1PL2 Copyright (c) Steve Scherf et al.
# Submitted via: CDex 1.51
#
DISCID=bb0b560e
DTITLE=Totally 70's - Totally 70's - Disc 3
DYEAR=1900
DGENRE=Ingles
TTITLE0=Swing the mood: In the mood - Jive Bunny
TTITLE1=Keep on dancing - Disco Tex
TTITLE2=Ob la di ob la da - The Marmalade
TTITLE3=Popcorn - Hot Butter
TTITLE4=Tie a yellow ribbon round the old oak tree - Drifters
TTITLE5=I love to love - Tina Charles
TTITLE6=Why can't we live together - Timmy Thomas
TTITLE7=Feelings - Morris Albert
TTITLE8=The witch queen of New Orleans - Redbone
TTITLE9=Stoned love - The Supremes
TTITLE10=Tweedle dee, tweedle dum - Middle of the Road
TTITLE11=I'm on fire - 5000 volts
TTITLE12=Let your love flow - The Bellamy Brothers
TTITLE13=Midnight train to Georgia - Glady Night
EXTD=
EXTT0=
EXTT1=
EXTT2=
EXTT3=
EXTT4=
EXTT5=
EXTT6=
EXTT7=
EXTT8=
EXTT9=
EXTT10=
EXTT11=
EXTT12=
EXTT13=
PLAYORDER=
